# xmcd
#
# Track frame offsets:
#	150
#	51795
#	95010
#	115632
#	155702
#	167892
#	182572
#	219045
#	256765
#
# Disc length: 3695 seconds
# Revision: 0
# Processed by: cddbd v1.5.2PL0 Copyright (c) Steve Scherf et al.
# Submitted via: dBpowerAMP V12.0
#
DISCID=6f0e6d09
DTITLE=Mikhail Pletnev - Haydn - Mozart Piano Concertos and Sonatas [Disc 1]
DYEAR=2004
DGENRE=Classical
TTITLE0=Haydn - Piano Concerto In G Major, Hob. XVIII:4 - i. Allegro Moderato
TTITLE1=Haydn - Piano Concerto In G Major, Hob. XVIII:4 - ii. Adagio Cantabile
TTITLE2=Haydn - Piano Concerto In G Major, Hob. XVIII:4 - iii. Rondo: Presto
TTITLE3=Haydn - Piano Concerto In F Major, Hob. XVIII:7 - i. Moderato
TTITLE4=Haydn - Piano Concerto In F Major, Hob. XVIII:7 - ii. Adagio
TTITLE5=Haydn - Piano Concerto In F Major, Hob. XVIII:7 - iii. Allegro
TTITLE6=Haydn - Piano Concerto In D Major, Hob. XVIII:11 - i. Vivace
TTITLE7=Haydn - Piano Concerto In D Major, Hob. XVIII:11 - ii. Un Poco Adagio
TTITLE8=Haydn - Piano Concerto In D Major, Hob. XVIII:11 - iii. Rondo all'Ungherese: Allegro Assai
EXTD=
EXTT0=
EXTT1=
EXTT2=
EXTT3=
EXTT4=
EXTT5=
EXTT6=
EXTT7=
EXTT8=
PLAYORDER=
